<svg xmlns="http://www.w3.org/2000/svg" xmlns:xlink="http://www.w3.org/1999/xlink" width="500" zoomAndPan="magnify" viewBox="0 0 375 374.999991" height="500" preserveAspectRatio="xMidYMid meet" version="1.0"><rect x="-37.5" width="450" fill="#ffffff" y="-37.499999" height="449.999989" fill-opacity="1"/><rect x="-37.5" width="450" fill="#ffffff" y="-37.499999" height="449.999989" fill-opacity="1"/><path fill="#67dcff" d="M 317.125 62.402344 C 317.125 62.402344 334.152344 75.492188 358.5625 77.460938 C 361.320312 77.65625 362.695312 80.808594 360.925781 82.972656 C 353.148438 92.421875 332.578125 110.039062 294.882812 96.160156 C 294.882812 96.160156 307.480469 112.304688 321.949219 119.785156 C 324.3125 121.0625 324.3125 124.410156 321.949219 125.6875 C 309.449219 132.382812 279.429688 143.996094 259.546875 116.042969 C 259.546875 116.042969 237.304688 149.703125 200.589844 120.667969 L 200.589844 362.5 C 200.589844 367.421875 197.734375 371.652344 193.601562 373.71875 C 191.832031 374.605469 189.863281 375 187.695312 375 C 180.90625 374.804688 175.589844 368.996094 175.589844 362.105469 L 175.589844 120.570312 L 174.210938 120.570312 C 137.402344 149.703125 115.257812 115.945312 115.257812 115.945312 C 95.375 143.800781 65.453125 132.183594 52.855469 125.589844 C 50.492188 124.3125 50.492188 120.867188 52.855469 119.683594 C 67.421875 112.203125 79.921875 96.0625 79.921875 96.0625 C 42.324219 109.941406 21.753906 92.324219 13.976562 82.972656 C 12.203125 80.90625 13.582031 77.757812 16.339844 77.460938 C 40.746094 75.492188 57.777344 62.402344 57.777344 62.402344 C 15.453125 65.945312 3.9375 40.847656 0.886719 29.429688 C 0.195312 26.96875 2.363281 24.703125 4.824219 25.296875 C 21.261719 28.839844 41.4375 28.542969 62.796875 26.28125 C 73.226562 25.195312 83.859375 23.621094 94.585938 21.753906 C 142.816406 13.289062 145.964844 83.070312 174.3125 83.070312 L 175.6875 83.070312 L 175.6875 59.644531 C 163.78125 54.429688 155.808594 41.832031 157.382812 27.558594 C 159.054688 13.289062 170.667969 1.871094 184.941406 0.492188 C 189.46875 0 193.898438 0.589844 197.933594 1.871094 C 210.234375 6.003906 219.191406 17.617188 219.191406 31.300781 C 219.191406 43.996094 211.613281 54.824219 200.6875 59.644531 L 200.6875 83.070312 C 229.035156 83.070312 232.085938 13.386719 280.414062 21.753906 C 313.089844 27.460938 345.769531 30.511719 370.175781 25.296875 C 372.636719 24.804688 374.804688 27.066406 374.113281 29.429688 C 370.964844 40.746094 359.449219 65.945312 317.125 62.402344 Z M 317.125 62.402344 " fill-opacity="1" fill-rule="nonzero"/><path fill="#587dff" d="M 293.601562 155.90625 C 293.601562 99.210938 247.835938 93.699219 230.707031 102.953125 C 227.65625 104.625 225.589844 106.691406 224.804688 109.054688 C 219.585938 124.703125 227.363281 149.015625 256.101562 152.460938 C 256.101562 152.460938 274.605469 178.640625 188.1875 194.488281 C 101.773438 178.738281 120.277344 152.460938 120.277344 152.460938 C 148.917969 149.015625 156.792969 124.703125 151.574219 109.054688 C 151.179688 107.777344 150.394531 106.59375 149.210938 105.511719 C 136.515625 93.207031 82.777344 94.390625 82.777344 155.90625 C 82.777344 184.941406 104.429688 200.394531 131.691406 210.335938 C 104.332031 224.015625 98.425781 243.109375 103.640625 262.695312 C 106.691406 274.210938 121.753906 289.960938 153.445312 301.671875 C 146.160156 306.59375 141.042969 312.5 139.46875 320.078125 C 136.21875 335.433594 143.800781 346.359375 150.195312 352.460938 C 151.871094 354.035156 154.527344 352.460938 153.9375 350.195312 C 153.9375 350.097656 153.839844 350 153.839844 349.804688 C 150.492188 336.21875 160.628906 322.144531 188.289062 312.203125 C 216.339844 322.242188 226.378906 336.515625 222.636719 350.195312 C 222.046875 352.363281 224.804688 353.9375 226.378906 352.363281 C 232.777344 346.261719 240.355469 335.335938 237.105469 319.980469 C 235.53125 312.5 230.316406 306.59375 223.128906 301.574219 C 254.824219 289.960938 269.882812 274.113281 272.933594 262.597656 C 278.148438 242.914062 272.242188 223.917969 244.882812 210.234375 C 272.046875 200.492188 293.601562 185.039062 293.601562 155.90625 Z M 242.617188 252.363281 C 242.617188 269.683594 214.960938 277.265625 188.089844 286.320312 C 161.320312 277.265625 133.5625 269.683594 133.5625 252.363281 C 133.5625 237.203125 158.167969 231.199219 188.089844 224.804688 C 218.011719 231.199219 242.617188 237.105469 242.617188 252.363281 Z M 242.617188 252.363281 " fill-opacity="1" fill-rule="nonzero"/><path fill="#2720ff" d="M 222.933594 301.671875 C 216.832031 303.9375 210.039062 306.003906 202.65625 307.875 C 197.34375 309.25 192.519531 310.726562 188.089844 312.304688 C 183.660156 310.726562 178.839844 309.25 173.523438 307.875 C 166.140625 306.003906 159.351562 303.9375 153.246094 301.671875 C 162.5 295.375 175.195312 290.648438 188.089844 286.21875 C 200.984375 290.648438 213.679688 295.375 222.933594 301.671875 Z M 194.585938 195.570312 C 192.324219 195.175781 190.257812 194.785156 188.1875 194.488281 C 186.121094 194.882812 183.957031 195.277344 181.792969 195.570312 C 160.234375 199.113281 143.898438 204.230469 131.691406 210.335938 C 149.605469 216.832031 169.882812 220.867188 188.1875 224.804688 C 206.496094 220.867188 226.871094 216.832031 244.683594 210.335938 C 232.578125 204.230469 216.140625 199.210938 194.585938 195.570312 Z M 194.585938 195.570312 " fill-opacity="1" fill-rule="nonzero"/><path fill="#b0c5ff" d="M 118.503906 124.113281 C 116.140625 124.113281 113.976562 122.636719 113.089844 120.472656 C 112.203125 118.207031 112.894531 115.648438 114.765625 114.074219 C 116.632812 112.402344 119.488281 112.304688 121.554688 113.582031 C 123.523438 114.863281 124.605469 117.222656 124.113281 119.585938 C 123.621094 122.144531 121.261719 124.113281 118.503906 124.113281 Z M 262.007812 119.585938 C 262.5 117.222656 261.515625 114.765625 259.449219 113.484375 C 257.382812 112.203125 254.625 112.304688 252.757812 113.878906 C 250.886719 115.355469 250.195312 118.011719 250.984375 120.277344 C 251.773438 122.539062 254.035156 124.113281 256.398438 124.113281 C 259.054688 124.113281 261.417969 122.144531 262.007812 119.585938 Z M 262.007812 119.585938 " fill-opacity="1" fill-rule="nonzero"/></svg>